<svg xmlns="http://www.w3.org/2000/svg" width="682.665" height="589.585" viewBox="0 0 682.665 589.585"><g transform="translate(-4075.589 -3035.541)"><path d="M649.332,428.859H512.665a10,10,0,0,1,0-20H649.332a3.337,3.337,0,0,0,3.333-3.333V-82.126a3.337,3.337,0,0,0-3.333-3.333h-636A3.337,3.337,0,0,0,10-82.126V0A10,10,0,0,1,0,10,10,10,0,0,1-10,0V-82.126A23.36,23.36,0,0,1,13.333-105.46h636a23.36,23.36,0,0,1,23.333,23.333V405.526A23.36,23.36,0,0,1,649.332,428.859Z" transform="translate(4085.589 3141.001)" fill="#060606"/><path d="M0,10H-440a23.36,23.36,0,0,1-23.333-23.333V-368.192a10,10,0,0,1,10-10,10,10,0,0,1,10,10V-13.333A3.337,3.337,0,0,0-440-10H0A10,10,0,0,1,10,0,10,10,0,0,1,0,10Z" transform="translate(4538.921 3559.858)" fill="#060606"/><path d="M-170.428,168.052H-580.856a10,10,0,0,1-10-10v-432.7a10,10,0,0,1,10-10H0a10,10,0,0,1,10,10V0A10,10,0,0,1,0,10,10,10,0,0,1-10,0V-264.651H-570.856v412.7h400.428a10,10,0,0,1,10,10A10,10,0,0,1-170.428,168.052Z" transform="translate(4707.349 3361)" fill="#060606"/><path d="M108.428,10H0A10,10,0,0,1-10,0,10,10,0,0,1,0-10H98.428v-94.718a10,10,0,0,1,10-10,10,10,0,0,1,10,10V0A10,10,0,0,1,108.428,10Z" transform="translate(4598.921 3519.052)" fill="#060606"/><path d="M344.729,10H0A10,10,0,0,1-10,0,10,10,0,0,1,0-10H344.729a10,10,0,0,1,10,10A10,10,0,0,1,344.729,10Z" transform="translate(4205.273 3170.054)" fill="#060606"/><path d="M423.3,10H0A10,10,0,0,1-10,0,10,10,0,0,1,0-10H423.3a10,10,0,0,1,10,10A10,10,0,0,1,423.3,10Z" transform="translate(4205.273 3230.878)" fill="#060606"/><path d="M240.5,10H0A10,10,0,0,1-10,0,10,10,0,0,1,0-10H240.5a10,10,0,0,1,10,10A10,10,0,0,1,240.5,10Z" transform="translate(4205.273 3291.702)" fill="#060606"/><path d="M0,0C12.924-34.025,18.663-70.265,19.6-106.556L-.041-103.9C4.4-77.26,4.752-49,17.187-24.427c5.84,11.541,17.751,18.369,30.495,13.235,10.751-4.331,19.32-16.28,22.6-27.116H51A40.094,40.094,0,0,0,61.436-18.449c9.7,9.789,22.456,8.743,35.144,8.727q29.692-.038,59.388-.128c12.868-.036,12.892-20.036,0-20q-33.637.1-67.275.14c-4.175,0-8.676.736-12.2-1.957-3.945-3.015-5.3-7.269-6.205-11.957-1.956-10.153-16.6-8.86-19.285,0C49.809-39.7,43.809-28.469,38.569-29.387c-2.777-.487-3.991-4.772-5.017-6.989a85.142,85.142,0,0,1-4.7-13.483c-5.265-19.379-6.317-39.612-9.608-59.356C17.335-120.664-.119-117.426-.4-106.556-1.295-71.928-6.957-37.775-19.285-5.317-23.86,6.727-4.532,11.935,0,0" transform="translate(4219.409 3460.827)" fill="#060606"/><path d="M0,168.666a9.992,9.992,0,0,1-4.217-.933l-24.449-11.372-24.449,11.372a10,10,0,0,1-9.594-.636,10,10,0,0,1-4.623-8.431V0a10,10,0,0,1,10-10,10,10,0,0,1,10,10V142.986l14.449-6.721a10,10,0,0,1,8.435,0L-10,142.986V0A10,10,0,0,1,0-10,10,10,0,0,1,10,0V158.666A10,10,0,0,1,5.377,167.1,10,10,0,0,1,0,168.666Z" transform="translate(4596.772 3456.46)" fill="#060606"/><path d="M0,10C-10.464,10-17.214,1.852-22.637-4.7c-2.085-2.517-5.235-6.32-6.734-6.943a10.022,10.022,0,0,0-3.494-.391c-2.162,0-4.462.216-6.761.418-2.889.254-5.777.494-8.484.494-2.79,0-11.283,0-17.3-6.023-7.144-7.158-6.24-17.493-5.512-25.8.316-3.607.748-8.546.023-10.3-.624-1.508-4.422-4.666-6.935-6.755-6.532-5.43-14.66-12.189-14.66-22.653S-84.362-99.866-77.83-105.3c2.513-2.089,6.309-5.246,6.933-6.753.725-1.751.292-6.69-.023-10.3-.727-8.3-1.632-18.639,5.512-25.8,6.013-6.025,14.507-6.025,17.3-6.025,2.708,0,5.6.24,8.485.494,2.3.2,4.6.418,6.759.418a10.018,10.018,0,0,0,3.5-.391c1.5-.623,4.65-4.426,6.734-6.943,5.423-6.547,12.172-14.694,22.636-14.694s17.215,8.148,22.638,14.695c2.085,2.516,5.235,6.32,6.734,6.942a10.022,10.022,0,0,0,3.5.391c2.161,0,4.46-.216,6.758-.418,2.889-.254,5.776-.494,8.484-.494,2.791,0,11.285,0,17.3,6.023,7.144,7.16,6.24,17.494,5.512,25.8-.316,3.606-.748,8.546-.023,10.3.624,1.508,4.421,4.664,6.933,6.753,6.532,5.431,14.662,12.189,14.662,22.654S84.364-65.42,77.832-59.99c-2.513,2.089-6.311,5.247-6.935,6.754-.724,1.75-.292,6.689.024,10.3.727,8.305,1.632,18.642-5.513,25.8-6.011,6.023-14.5,6.023-17.3,6.023-2.708,0-5.595-.24-8.484-.494-2.3-.2-4.6-.418-6.758-.418a10.021,10.021,0,0,0-3.5.391c-1.5.623-4.651,4.426-6.735,6.943C17.215,1.852,10.465,10,0,10ZM-32.866-32.029A28.424,28.424,0,0,1-21.7-30.108c6.071,2.522,10.337,7.673,14.463,12.655,1.944,2.346,5.492,6.631,7.235,7.4,1.743-.766,5.292-5.051,7.236-7.4C11.363-22.435,15.63-27.586,21.7-30.107a28.424,28.424,0,0,1,11.17-1.922c2.721,0,5.617.241,8.509.495,2.293.2,4.583.417,6.733.417a9.127,9.127,0,0,0,3.445-.388c.2-.964-.273-6.426-.559-9.69-.551-6.289-1.175-13.418,1.42-19.688,2.516-6.078,7.657-10.352,12.629-14.486,2.448-2.035,7-5.823,7.468-7.474-.464-1.25-5.021-5.039-7.469-7.074-4.972-4.133-10.113-8.407-12.627-14.484-2.6-6.27-1.971-13.4-1.421-19.69.271-3.1.716-8.18.127-9.968-.2.081-1.137-.11-3.014-.11-2.15,0-4.44.215-6.733.417-2.892.254-5.788.495-8.509.495A28.428,28.428,0,0,1,21.7-135.178c-6.07-2.521-10.337-7.672-14.463-12.653-2.028-2.448-5.8-7-7.451-7.477-1.22.474-4.993,5.029-7.02,7.476-4.126,4.982-8.393,10.133-14.464,12.654a28.424,28.424,0,0,1-11.167,1.921c-2.721,0-5.617-.241-8.51-.495-2.293-.2-4.584-.417-6.733-.417a9.122,9.122,0,0,0-3.446.389c-.2.963.274,6.425.56,9.688.551,6.29,1.175,13.42-1.421,19.691-2.515,6.076-7.655,10.349-12.626,14.482-2.448,2.036-7.006,5.825-7.469,7.476.464,1.25,5.02,5.038,7.468,7.074,4.972,4.134,10.113,8.408,12.628,14.484,2.6,6.271,1.972,13.4,1.421,19.691-.271,3.1-.716,8.18-.127,9.967.2-.081,1.135.109,3.01.109,2.153,0,4.441-.215,6.735-.417C-38.484-31.789-35.587-32.029-32.866-32.029Z" transform="translate(4568.105 3476.376)" fill="#060606"/><path d="M-29.06-39.059A39.1,39.1,0,0,1,10,0,39.1,39.1,0,0,1-29.06,39.059,39.1,39.1,0,0,1-68.118,0,39.1,39.1,0,0,1-29.06-39.059Zm0,58.117A19.081,19.081,0,0,0-10,0,19.081,19.081,0,0,0-29.06-19.059,19.08,19.08,0,0,0-48.119,0,19.08,19.08,0,0,0-29.06,19.059Z" transform="translate(4597.165 3393.733)" fill="#060606"/></g></svg>