<svg xmlns="http://www.w3.org/2000/svg" width="338.59" height="422.001" viewBox="0 0 338.59 422.001"><g transform="translate(-61.69 -19.999)"><path d="M397.35,132.52,287.76,22.93A9.61,9.61,0,0,0,280.69,20h-179a40,40,0,0,0-40,40V402a40,40,0,0,0,40,40H360.28a40,40,0,0,0,40-40V139.59a10.07,10.07,0,0,0-2.93-7.07Zm-31.21-2.93H305.69a15,15,0,0,1-15-15V54.14ZM360.28,422H101.72a20,20,0,0,1-20-20V60a20,20,0,0,1,20-20h169v74.59a35,35,0,0,0,35,35h74.59V402a20,20,0,0,1-20.03,20Z"/><path d="M190.83,174a40.5,40.5,0,1,0-40.5-40.5,40.5,40.5,0,0,0,40.5,40.5Zm0-61a20.5,20.5,0,1,1-20.5,20.5,20.5,20.5,0,0,1,20.5-20.5ZM132.22,251.5a10,10,0,0,0,10-10v-6.1a37.11,37.11,0,0,1,37.06-37.06h23.1a37.11,37.11,0,0,1,37.06,37.06v6.1a10,10,0,0,0,20,0v-6.1a57.13,57.13,0,0,0-57.06-57.06h-23.1a57.13,57.13,0,0,0-57.06,57.06v6.1A10,10,0,0,0,132.22,251.5Zm-5.57,73.17H248a10,10,0,1,0,0-20H126.65a10,10,0,0,0,0,20Zm190,32.66h-190a10,10,0,0,0,0,20h190a10,10,0,0,0,0-20Z"/></g></svg>