<svg xmlns="http://www.w3.org/2000/svg" width="431.808" height="512.001" viewBox="0 0 431.808 512.001"><path d="M447.229,444.146H404.048v43.18A24.745,24.745,0,0,1,379.379,512H64.771A24.746,24.746,0,0,1,40.1,487.326V92.531A24.747,24.747,0,0,1,64.772,67.856h43.181V24.675A24.744,24.744,0,0,1,132.628,0H342.357c13.565,0,32.762,7.612,42.638,16.908L453.924,81.79c9.888,9.3,17.969,28.012,17.969,41.583l.012,296.1a24.75,24.75,0,0,1-24.676,24.677ZM107.951,419.47V86.362H64.771A6.251,6.251,0,0,0,58.6,92.53v394.8a6.251,6.251,0,0,0,6.168,6.168H379.38a6.255,6.255,0,0,0,6.168-6.168V444.145H132.626a24.743,24.743,0,0,1-24.675-24.675ZM441.24,95.264,372.311,30.387a32.742,32.742,0,0,0-5.281-3.867V83.278A15.468,15.468,0,0,0,382.452,98.7H444.17a25.908,25.908,0,0,0-2.93-3.435Zm12.145,28.111a28.775,28.775,0,0,0-.839-6.168H382.451a34,34,0,0,1-33.928-33.928V19.255a32.26,32.26,0,0,0-6.168-.746H132.626a6.246,6.246,0,0,0-6.168,6.168v394.8a6.247,6.247,0,0,0,6.168,6.168h314.6a6.251,6.251,0,0,0,6.168-6.168l-.011-296.1Z" transform="translate(-40.097)"/><path d="M379.379,357.783H200.488a9.253,9.253,0,1,1,0-18.506H379.379a9.253,9.253,0,0,1,0,18.506Zm0-123.374H200.488a9.253,9.253,0,1,1,0-18.506H379.379a9.253,9.253,0,1,1,0,18.506Zm-80.192-61.687h-98.7a9.253,9.253,0,0,1,0-18.506h98.7a9.253,9.253,0,0,1,0,18.506ZM379.379,296.1H200.488a9.253,9.253,0,0,1,0-18.506H379.379a9.253,9.253,0,0,1,0,18.506Z" transform="translate(-40.097 0.002)"/></svg>