<svg xmlns="http://www.w3.org/2000/svg" width="384.001" height="512.003" viewBox="0 0 384.001 512.003"><g transform="translate(-64.001 0)"><path d="M360.241,384.6l-213.365-.031a10.667,10.667,0,1,0,0,21.334l213.365.031a10.667,10.667,0,0,0,0-21.334Zm-42.7,42.667h-128a10.667,10.667,0,1,0,0,21.334h128a10.667,10.667,0,1,0,0-21.334ZM256,128A117.333,117.333,0,1,0,373.334,245.335,117.465,117.465,0,0,0,256,128ZM161.079,256h41.807c1.181,29.056,7.182,57.952,17.6,78.342A95.792,95.792,0,0,1,161.079,256Zm41.808-21.333H161.08a95.793,95.793,0,0,1,59.406-78.342c-10.417,20.39-16.418,49.286-17.6,78.342ZM256,341.336c-12.221,0-29.409-33.047-31.573-85.333h63.146C285.41,308.289,268.222,341.336,256,341.336ZM224.428,234.669c2.164-52.286,19.352-85.333,31.573-85.333s29.409,33.047,31.573,85.333Zm67.089,99.676c10.417-20.391,16.418-49.286,17.6-78.342h41.807A95.8,95.8,0,0,1,291.517,334.345Zm17.6-99.676c-1.181-29.056-7.182-57.952-17.6-78.342a95.793,95.793,0,0,1,59.406,78.342Z"/><path d="M405.334,64H384V41.96C384,18.654,364.28-.233,341.334,0A38.782,38.782,0,0,0,331.8,1.346L104.383,64.233A42.6,42.6,0,0,0,64,106.669V469.336A42.709,42.709,0,0,0,106.668,512H405.335A42.709,42.709,0,0,0,448,469.336V106.669A42.711,42.711,0,0,0,405.334,64ZM337.282,21.96c12.448-3.177,25.385,6.906,25.385,20V64H185.259Zm89.386,447.376a21.361,21.361,0,0,1-21.333,21.333H106.668a21.361,21.361,0,0,1-21.333-21.333V106.669a21.361,21.361,0,0,1,21.333-21.333H405.335a21.361,21.361,0,0,1,21.333,21.333V469.336Z"/></g></svg>